HIERARCHY
ROOT Hips
{
 OFFSET 0.000000 0.000000 0.000000
 CHANNELS 6 Xposition Yposition Zposition Yrotation Xrotation Zrotation
 JOINT Chest
 {
  OFFSET 0.000000 9.585900 0.002600
  CHANNELS 3 Yrotation Xrotation Zrotation
  JOINT Chest2
  {
   OFFSET 0.000000 9.601200 -0.005300
   CHANNELS 3 Yrotation Xrotation Zrotation
   JOINT Chest3
   {
    OFFSET 0.000000 9.561800 0.000000
    CHANNELS 3 Yrotation Xrotation Zrotation
    JOINT Chest4
    {
     OFFSET 0.000000 9.552100 0.000000
     CHANNELS 3 Yrotation Xrotation Zrotation
     JOINT Neck
     {
      OFFSET 0.000000 14.453000 0.000000
      CHANNELS 3 Yrotation Xrotation Zrotation
      JOINT Head
      {
       OFFSET 0.000000 8.936500 -0.011300
       CHANNELS 3 Yrotation Xrotation Zrotation
       End Site
       {
        OFFSET 0.000000 17.073600 -0.006000
       }
      }
     }
     JOINT RightCollar
     {
      OFFSET -2.921100 9.558500 0.000000
      CHANNELS 3 Yrotation Xrotation Zrotation
      JOINT RightShoulder
      {
       OFFSET -13.519700 0.000000 0.000000
       CHANNELS 3 Yrotation Xrotation Zrotation
       JOINT RightElbow
       {
        OFFSET 0.000000 -29.696600 0.000000
        CHANNELS 3 Yrotation Xrotation Zrotation
        JOINT RightWrist
        {
         OFFSET 0.000000 -24.004700 0.000000
         CHANNELS 3 Yrotation Xrotation Zrotation
         End Site
         {
          OFFSET 0.000000 -17.728500 0.000000
         }
        }
       }
      }
     }
     JOINT LeftCollar
     {
      OFFSET 2.921100 9.558500 0.000000
      CHANNELS 3 Yrotation Xrotation Zrotation
      JOINT LeftShoulder
      {
       OFFSET 13.519700 0.000000 0.000000
       CHANNELS 3 Yrotation Xrotation Zrotation
       JOINT LeftElbow
       {
        OFFSET 0.000000 -29.696600 0.000000
        CHANNELS 3 Yrotation Xrotation Zrotation
        JOINT LeftWrist
        {
         OFFSET 0.000000 -24.004700 0.000000
         CHANNELS 3 Yrotation Xrotation Zrotation
         End Site
         {
          OFFSET 0.000000 -17.728500 0.000000
         }
        }
       }
      }
     }
    }
   }
  }
 }
 JOINT RightHip
 {
  OFFSET -7.771700 -0.012900 -0.001300
  CHANNELS 3 Yrotation Xrotation Zrotation
  JOINT RightKnee
  {
   OFFSET 0.000000 -40.869800 0.001200
   CHANNELS 3 Yrotation Xrotation Zrotation
   JOINT RightAnkle
   {
    OFFSET 0.000000 -39.717900 0.002100
    CHANNELS 3 Yrotation Xrotation Zrotation
    JOINT RightToe
    {
     OFFSET 0.000000 -4.965400 11.033500
     CHANNELS 3 Yrotation Xrotation Zrotation
     End Site
     {
      OFFSET 0.000000 -1.423100 5.872300
     }
    }
   }
  }
 }
 JOINT LeftHip
 {
  OFFSET 7.771700 -0.012900 -0.001300
  CHANNELS 3 Yrotation Xrotation Zrotation
  JOINT LeftKnee
  {
   OFFSET 0.000000 -40.869800 0.001200
   CHANNELS 3 Yrotation Xrotation Zrotation
   JOINT LeftAnkle
   {
    OFFSET 0.000000 -39.717900 0.002100
    CHANNELS 3 Yrotation Xrotation Zrotation
    JOINT LeftToe
    {
     OFFSET 0.000000 -4.965400 11.033500
     CHANNELS 3 Yrotation Xrotation Zrotation
     End Site
     {
      OFFSET 0.000000 -1.423100 5.872300
     }
    }
   }
  }
 }
}
MOTION
Frames: 5
Frame Time: 0.008333
0.000000 85.388000 0.000000 0.000000 -5.767877 0.000000 0.000000 11.653817 0.000000 0.000000 -5.885947 0.000000 0.000000 -0.000000 0.000000 0.000000 -0.000000 0.000000 0.000000 12.528835 0.000000 0.000000 0.711642 0.000000 0.000000 -0.000000 0.000000 0.000000 0.000000 -90.000000 0.000000 -2.309062 0.000000 0.000000 2.309062 0.000000 0.000000 -0.000000 0.000000 0.000000 -0.000000 90.000000 0.000000 -2.309062 0.000000 0.000000 2.309062 0.000000 0.000000 8.520406 0.000000 0.000000 1.905762 0.000000 -0.000000 -4.658285 0.000000 0.000000 -0.000000 0.000000 0.000000 8.520406 0.000000 0.000000 1.905762 0.000000 -0.000000 -4.658285 0.000000 0.000000 -0.000000 0.000000
-89.731497 62.053149 18.072318 172.815235 -47.667304 -1.019482 4.759695 24.243676 1.558055 0.636433 3.727978 0.205960 1.011797 5.992561 0.358711 3.710903 20.058508 1.667001 -1.427719 19.697901 3.136496 -3.516668 0.899319 6.117913 5.335974 3.290097 4.610021 -41.413684 -41.091333 -14.309924 -142.536334 -54.456332 152.803460 -7.165693 -16.594150 -6.759301 -11.502994 -2.610644 1.720745 6.836626 -45.338922 29.290261 138.389896 -67.565874 -132.553698 16.837865 -18.270469 3.152051 3.124599 -19.631259 -3.069728 -2.057516 60.554468 -5.192212 2.588321 -5.330582 10.208575 0.228690 -0.509508 0.094296 -3.612362 -15.935320 5.731352 28.797785 76.332050 30.733735 1.505685 -11.454304 -5.554133 0.260260 0.706298 0.091167
-89.730793 62.052820 18.070201 172.815867 -47.649606 -1.020879 4.731511 24.248766 1.557735 0.631692 3.728292 0.206284 1.022042 5.981894 0.351670 3.698263 20.060241 1.666004 -1.437927 19.608237 3.109484 -3.494928 0.720168 6.042759 5.322027 3.317402 4.583507 -41.160246 -40.816994 -14.472176 -143.650513 -54.561978 153.866450 -6.808428 -16.096544 -6.862782 -11.450689 -2.519235 1.719586 6.700218 -44.984000 29.292134 140.050163 -67.907629 -133.967214 16.652270 -17.921023 3.452557 3.123310 -19.648966 -3.070092 -2.058906 60.556808 -5.191962 2.588859 -5.330144 10.208591 0.225221 -0.510118 0.093839 -3.617669 -15.952542 5.726715 28.836694 76.330696 30.779258 1.507440 -11.457421 -5.558247 0.250015 0.706213 0.090227
-89.729179 62.053364 18.067117 172.819661 -47.637080 -1.028491 4.702590 24.254305 1.558283 0.627553 3.727996 0.206406 0.993666 5.991348 0.361010 3.691857 20.053102 1.650277 -1.423820 19.502074 3.066022 -3.477443 0.530034 5.970151 5.281112 3.394418 4.536763 -40.851706 -40.550934 -14.615033 -144.714628 -54.662552 154.912717 -6.450768 -15.611148 -6.957645 -11.385488 -2.485895 1.697970 6.524944 -44.526677 29.336526 141.848431 -68.278985 -135.502942 16.481864 -17.586203 3.756090 3.117892 -19.657898 -3.071809 -2.035870 60.556148 -5.164766 2.596992 -5.335678 10.206941 0.218301 -0.505616 0.092458 -3.625637 -15.962930 5.727450 28.876807 76.329006 30.826792 1.505146 -11.463526 -5.567096 0.260006 0.707814 0.093239
-89.728248 62.053624 18.064050 172.823914 -47.621500 -1.031416 4.677882 24.255261 1.557636 0.623323 3.727003 0.206872 1.008360 5.980145 0.352116 3.633485 20.066755 1.669900 -1.397691 19.385565 3.002493 -3.466256 0.328401 5.904436 5.292864 3.436431 4.484876 -40.526379 -40.237112 -14.826385 -145.717856 -54.758937 155.925922 -6.090046 -15.145819 -7.017461 -11.288460 -2.371646 1.658221 6.311470 -44.105700 29.391772 143.779220 -68.673031 -137.170773 16.330237 -17.265867 4.068445 3.116834 -19.673179 -3.075385 -2.040438 60.560422 -5.164320 2.602942 -5.335501 10.207260 0.215617 -0.509729 0.090277 -3.628868 -15.978859 5.723030 28.913501 76.330412 30.871457 1.507263 -11.466347 -5.573951 0.255810 0.705863 0.096771
